PathFileType	4	(X/Y/Z)	D:\MotionData\NordSprintingStudy\Test 2\Edited\JustTheBoards000001.trc
DataRate	CameraRate	NumFrames	NumMarkers	Units	OrigDataRate	OrigDataStartFrame	OrigNumFrames
200.00	200.00	       54	5	mm	200.00	469	       624
Frame#	Time	M1			M2			M3			M4			M5			
		X1	Y1	Z1	X2	Y2	Z2	X3	Y3	Z3	X4	Y4	Z4	X5	Y5	Z5	

469	2.340	917.44427	1916.73767	47.73486	901.16882	2236.93433	58.81250	1100.94299	2247.64722	57.70909	1500.48181	2268.08813	58.13816	1516.11145	1946.89868	47.34864	
470	2.345	917.46527	1916.72742	47.69556	901.16840	2236.87378	58.81001	1100.84509	2247.59448	57.82440	1500.49963	2268.10205	58.14547	1516.12720	1946.88184	47.36379	
471	2.350	917.45294	1916.71069	47.68018	901.12921	2236.88550	58.89339	1100.85925	2247.61426	57.82943	1500.38916	2268.05347	58.30965	1516.07129	1946.87024	47.40247	
472	2.355	917.43445	1916.69543	47.77835	901.12903	2236.86426	58.92791	1100.86670	2247.59766	57.83987	1500.34473	2268.04199	58.34424	1516.11548	1946.87659	47.44383	
473	2.360	917.40704	1916.67737	47.77740	901.03857	2236.85986	59.03141	1100.80847	2247.58325	57.90296	1500.29346	2267.99976	58.44717	1516.04199	1946.87000	47.51914	
474	2.365	917.32074	1916.66528	47.91561	901.12872	2236.85962	58.93705	1100.75916	2247.57178	58.00064	1500.28125	2267.98120	58.41102	1516.04431	1946.87500	47.52804	
475	2.370	917.26520	1916.64282	48.00846	901.06836	2236.88794	59.03627	1100.75598	2247.57495	57.99224	1500.23816	2267.96729	58.48859	1515.98108	1946.93323	47.59396	
476	2.375	917.25818	1916.62817	47.97213	901.06372	2236.84058	59.01156	1100.68530	2247.55322	58.06340	1500.21191	2267.93799	58.50410	1516.07556	1947.13574	47.66035	
477	2.380	917.20966	1916.59851	48.08876	901.03314	2236.89185	59.11263	1100.69470	2247.52393	58.06558	1500.16687	2267.94434	58.55554	1516.09497	1947.27124	47.82102	
478	2.385	917.25128	1916.59473	48.00251	901.01398	2236.84644	59.03814	1100.63110	2247.53931	58.09690	1500.11389	2267.91260	58.54105	1516.00989	1947.00635	47.74874	
479	2.390	917.18555	1916.59009	48.09761	900.97644	2236.82446	59.17707	1100.65771	2247.55005	58.10736	1500.11743	2267.91553	58.57154	1516.08215	1946.48291	48.17871	
480	2.395	917.21576	1916.59448	48.06919	900.98749	2236.84717	59.04856	1100.62402	2247.53320	58.14473	1500.11365	2267.95215	58.53716	1516.12524	1946.49658	48.13124	
481	2.400	917.16333	1916.58899	48.12728	900.99078	2236.85034	59.06136	1100.62329	2247.51147	58.05309	1500.13452	2267.94727	58.50987	1516.09180	1946.48840	48.18990	
482	2.405	917.23346	1916.64856	48.03840	901.02966	2236.86621	59.00704	1100.60229	2247.54004	58.10635	1500.16309	2267.92505	58.51215	1516.11816	1946.48950	48.10310	
483	2.410	917.25745	1916.63147	47.97311	900.93750	2236.86670	59.08245	1100.65686	2247.54639	57.98883	1500.11279	2267.97998	58.50587	1516.09033	1946.50232	48.14100	
484	2.415	917.26422	1916.65125	47.94683	900.99078	2236.86792	59.02549	1100.66492	2247.55078	58.03640	1500.20239	2267.97900	58.40287	1516.16040	1946.55408	48.05682	
485	2.420	917.30823	1916.66968	47.87681	901.06500	2236.88599	58.91127	1100.69116	2247.58447	57.94754	1500.10510	2267.97852	58.48381	1516.19824	1946.55896	48.00218	
486	2.425	917.27063	1916.63684	47.92307	901.05707	2236.87671	58.94425	1100.74939	2247.59326	57.89385	1500.23755	2268.02393	58.35361	1516.18640	1946.57251	48.00591	
487	2.430	917.32642	1916.69067	47.82670	901.03595	2236.90503	58.91402	1100.70544	2247.57788	57.94770	1500.30127	2268.03589	58.30588	1516.22839	1946.59204	47.91840	
488	2.435	917.38922	1916.70642	47.72317	901.08850	2236.89526	58.89190	1100.81140	2247.61328	57.84246	1500.27661	2268.01733	58.36802	1516.28674	1946.64001	47.84114	
489	2.440	917.36102	1916.71533	47.77558	901.17487	2236.89185	58.79902	1100.86877	2247.60303	57.80207	1500.40808	2268.06372	58.28781	1516.30493	1946.64050	47.85855	
490	2.445	917.42480	1916.72925	47.68680	901.29663	2236.77026	58.75126	1100.85229	2247.62622	57.82586	1500.44214	2268.04883	58.20705	1516.33643	1946.62231	47.83604	
491	2.450	917.46558	1916.75549	47.61197	901.12372	2236.85278	58.88239	1100.91943	2247.59253	57.80260	1500.40137	2268.05347	58.34925	1516.35815	1946.61975	47.79832	
492	2.455	917.46832	1916.72839	47.63584	901.23688	2236.90234	58.78641	1100.90820	2247.61304	57.77873	1500.50500	2268.07104	58.20086	1516.38708	1946.64099	47.76638	
493	2.460	917.50348	1916.73279	47.58920	901.20697	2236.87646	58.82958	1100.99573	2247.62646	57.72057	1500.42505	2268.04639	58.29849	1516.41345	1946.62866	47.73380	
494	2.465	917.40442	1916.71729	47.74338	901.15955	2236.89429	58.87080	1100.97217	2247.63208	57.72497	1500.53455	2268.07324	58.21739	1516.38293	1946.62097	47.80221	
495	2.470	917.49860	1916.73145	47.62761	901.30957	2236.78271	58.81765	1100.97229	2247.60229	57.70820	1500.67908	2267.77417	58.29314	1516.40503	1946.62500	47.75780	
496	2.475	917.48322	1916.74109	47.63200	901.25403	2236.87988	58.74266	1100.92590	2247.62183	57.78198	1500.59644	2267.90381	58.28999	1516.40356	1946.63660	47.76815	
497	2.480	917.43243	1916.72241	47.72287	901.18616	2236.88721	58.85157	1100.93530	2247.61865	57.76305	1500.50073	2267.96948	58.30695	1516.34424	1946.58875	47.83923	
498	2.485	917.41193	1916.69568	47.74673	901.16394	2236.88574	58.80555	1100.91943	2247.63379	57.74858	1500.44666	2268.04102	58.32531	1516.35791	1946.58875	47.83466	
499	2.490	917.42719	1916.71777	47.70189	901.13800	2236.84863	58.83228	1100.89111	2247.61133	57.80194	1500.30823	2267.99243	58.44123	1516.34973	1946.61096	47.84153	
500	2.495	917.33539	1916.67017	47.83278	901.12042	2236.89868	58.83627	1100.83264	2247.60742	57.78599	1500.37744	2268.02368	58.36771	1516.28198	1946.58325	47.92225	
501	2.500	917.10376	1916.82141	47.40022	901.08569	2236.86279	58.89991	1100.80554	2247.58521	57.87896	1500.29077	2267.97607	58.48388	1516.29224	1946.57422	47.91016	
502	2.505	917.02325	1916.82751	47.54640	901.11108	2236.80420	58.99103	1100.72546	2247.58862	57.93011	1500.28638	2268.01050	58.43538	1516.18530	1946.55359	48.05349	
503	2.510	917.03986	1916.83521	47.50734	901.04602	2236.88379	58.97560	1100.65698	2247.55591	58.04291	1500.29236	2267.99146	58.43330	1516.18750	1946.56775	48.02161	
504	2.515	916.94952	1916.81750	47.62169	901.02905	2236.88159	58.99395	1100.67310	2247.55225	57.99391	1500.17346	2267.96729	58.56422	1516.14392	1946.52515	48.09548	
505	2.520	916.99377	1916.80139	47.58582	900.98517	2236.86426	59.03528	1100.61853	2247.53345	58.09264	1500.17017	2267.95581	58.59223	1516.15320	1946.52222	48.07283	
506	2.525	916.92499	1916.80371	47.64859	901.01202	2236.89697	59.04494	1100.65857	2247.54102	58.03806	1500.14368	2267.93530	58.58275	1516.10449	1946.50830	48.14797	
507	2.530	916.98071	1916.79102	47.61782	900.98187	2236.81885	59.06533	1100.59949	2247.52222	58.14699	1500.15369	2267.94629	58.58948	1516.11609	1946.48694	48.11065	
508	2.535	916.92352	1916.81299	47.65910	900.96533	2236.85767	59.10697	1100.62646	2247.52637	58.11183	1500.17419	2267.93774	58.62776	1516.07336	1946.48816	48.18629	
509	2.540	916.98132	1916.80420	47.58947	900.99664	2236.84033	59.02355	1100.66577	2247.54810	58.03334	1500.11597	2267.92285	58.63974	1516.15491	1946.53003	48.05651	
510	2.545	916.98065	1916.81689	47.57095	901.02124	2236.84082	59.03579	1100.71191	2247.56396	57.98568	1500.17847	2267.94824	58.58468	1516.16125	1946.50647	48.06907	
511	2.550	917.04309	1916.82825	47.51679	901.05731	2236.88916	58.95563	1100.67810	2247.56421	58.02249	1500.13574	2267.94336	58.60938	1516.18506	1946.54529	48.03480	
512	2.555	917.06488	1916.82458	47.50946	901.07288	2236.87085	58.98933	1100.69104	2247.52881	57.99707	1500.21277	2267.96289	58.51813	1516.17737	1946.54468	48.00620	
513	2.560	917.12970	1916.84827	47.41676	900.94287	2236.83643	59.05015	1100.73901	2247.59131	57.94667	1500.22461	2267.94946	58.58387	1516.23059	1946.55017	47.97607	
514	2.565	917.14410	1916.84595	47.41822	901.04871	2236.82202	58.96146	1100.74805	2247.56030	57.91033	1500.30469	2268.00122	58.43161	1516.23425	1946.55042	47.96536	
515	2.570	917.15808	1916.86182	47.34306	901.03802	2236.84863	58.99686	1100.79053	2247.55518	57.88749	1500.32581	2267.98828	58.43710	1516.23218	1946.55396	47.95366	
516	2.575	917.18298	1916.85876	47.33992	901.22028	2236.78101	58.82815	1100.80457	2247.59009	57.86919	1500.43689	2268.04468	58.31344	1516.30518	1946.58569	47.87994	
517	2.580	917.20880	1916.87207	47.28766	901.20428	2236.75830	58.90895	1100.86768	2247.58691	57.80530	1500.40857	2268.02124	58.33595	1516.31116	1946.57385	47.84103	
518	2.585	917.21777	1916.90527	47.27216	901.18921	2236.89673	58.78006	1100.82031	2247.59473	57.86383	1500.54712	2268.08984	58.21788	1516.34363	1946.61340	47.80136	
519	2.590	917.23584	1917.36194	47.09258	901.11542	2236.86572	58.89309	1100.91187	2247.59961	57.74876	1500.48706	2268.07227	58.28210	1516.32581	1946.62915	47.84381	
520	2.595	917.19666	1918.53357	46.55332	901.19257	2236.92529	58.75072	1100.92505	2247.63501	57.74459	1500.55164	2268.09277	58.17449	1516.40161	1946.65466	47.75545	
521	2.600	917.43951	1916.74475	47.67459	901.20636	2236.92969	58.79103	1100.95349	2247.63330	57.70661	1500.52234	2268.07495	58.22051	1516.38989	1946.65027	47.77254	
522	2.605	917.50067	1916.76501	47.61190	901.24030	2236.88623	58.70985	1100.97021	2247.64282	57.66543	1500.52747	2268.08740	58.20380	1516.41260	1946.66260	47.72619	
